<svg id="CERVUS-" xmlns="http://www.w3.org/2000/svg" width="113" height="42" viewBox="0 0 113 42">
  <g id="Tipografía-Title-Copy-3">
    <g id="Group-Copy-9">
      <path id="CERVUS" d="M10.649,19.83A10.631,10.631,0,0,0,20.781,13H15.7a5.716,5.716,0,0,1-5.051,2.861,5.949,5.949,0,1,1,0-11.9,5.6,5.6,0,0,1,5.02,2.8H20.75A10.582,10.582,0,0,0,10.649,0C4.777,0,0,4.448,0,9.915S4.777,19.83,10.649,19.83Zm24.705-.283V15.694H27.931V11.813h7.12V7.96h-7.12V4.136h7.424V.283H23.367V19.547Zm8.215,0V12.663h.03l4.929,6.884h5.781l-5.933-7.082a5.935,5.935,0,0,0,4.716-6.006A6.19,6.19,0,0,0,46.764.283H39.005V19.547ZM46,9.32H43.569V3.626H46a2.773,2.773,0,0,1,2.738,2.833A2.744,2.744,0,0,1,46,9.32ZM66.388,19.547,74.755.283H69.826L65.536,11.1l-1.126,3.031L63.285,11.1,59.025.283H54.1l8.367,19.263Zm18.438.283c5.385,0,8.55-2.663,8.55-7.79V.283H88.812V11.416c0,2.663-.852,4.164-3.986,4.164-3.1,0-3.986-1.5-3.986-4.164V.283H76.277V12.04C76.277,17.167,79.441,19.83,84.826,19.83ZM104.42,20c4.229,0,8.58-1.671,8.58-6.2,0-7.337-11.957-4.873-11.957-8.3,0-1.445,1.8-2.011,3.073-2.011,2.282,0,3.529.652,3.773,2.663H112.3C112.148,1.756,108.314,0,104.055,0c-3.773,0-7.728,1.87-7.728,5.836,0,7.11,11.957,4.7,11.957,8.442,0,1.728-2.251,2.266-3.681,2.266-2.251,0-4.2-1.048-4.32-3.343H95.658C95.688,17.9,99.856,20,104.42,20Z" transform="translate(0)" fill="#fff"/>
    </g>
  </g>
  <text id="CRM" transform="translate(94 37)" fill="#fff" font-size="18" font-family="GlacialIndifference-Regular, Glacial Indifference"><tspan x="-18.504" y="0">CRM</tspan></text>
</svg>
