<svg xmlns="http://www.w3.org/2000/svg" width="104" height="43" viewBox="0 0 104 43">
  <g id="Group_639" data-name="Group 639" transform="translate(-736 -258)">
    <g id="CERVUS-" transform="translate(736 258)">
      <g id="Tipografía-Title-Copy-3">
        <g id="Group-Copy-9">
          <path id="CERVUS" d="M9.8,19.83A9.836,9.836,0,0,0,19.125,13H14.449A5.2,5.2,0,0,1,9.8,15.864,5.745,5.745,0,0,1,4.256,9.915,5.763,5.763,0,0,1,9.8,3.966a5.086,5.086,0,0,1,4.62,2.8H19.1A9.787,9.787,0,0,0,0,9.915,9.869,9.869,0,0,0,9.8,19.83Zm22.738-.283V15.694H25.706V11.813h6.553V7.96H25.706V4.136h6.833V.283H21.506V19.547Zm7.561,0V12.663h.028l4.536,6.884h5.32l-5.46-7.082a5.847,5.847,0,0,0,4.34-6.006A5.941,5.941,0,0,0,43.039.283H35.9V19.547ZM42.339,9.32H40.1V3.626h2.24a2.671,2.671,0,0,1,2.52,2.833A2.645,2.645,0,0,1,42.339,9.32ZM61.1,19.547,68.8.283H64.265L60.317,11.1l-1.036,3.031L58.244,11.1,54.324.283H49.788l7.7,19.263Zm16.969.283c4.956,0,7.869-2.663,7.869-7.79V.283h-4.2V11.416c0,2.663-.784,4.164-3.668,4.164-2.856,0-3.668-1.5-3.668-4.164V.283H70.2V12.04C70.2,17.167,73.114,19.83,78.07,19.83ZM96.1,20c3.892,0,7.9-1.671,7.9-6.2,0-7.337-11-4.873-11-8.3,0-1.445,1.652-2.011,2.828-2.011,2.1,0,3.248.652,3.472,2.663h4.06C103.216,1.756,99.688,0,95.767,0,92.3,0,88.655,1.87,88.655,5.836c0,7.11,11,4.7,11,8.442,0,1.728-2.072,2.266-3.388,2.266-2.072,0-3.864-1.048-3.976-3.343H88.039C88.067,17.9,91.9,20,96.1,20Z" fill="#881414"/>
        </g>
      </g>
    </g>
    <text id="CRM" transform="translate(821 296)" fill="#881414" font-size="18" font-family="GlacialIndifference-Regular, Glacial Indifference"><tspan x="-18.504" y="0">CRM</tspan></text>
  </g>
</svg>
