<svg xmlns="http://www.w3.org/2000/svg" width="590" height="735.087" viewBox="0 0 590 735.087">
  <g id="Group_645" data-name="Group 645" transform="translate(-880 -345)">
    <circle id="Ellipse_102" data-name="Ellipse 102" cx="239.5" cy="239.5" r="239.5" transform="translate(880 345)" fill="#881414"/>
    <path id="FontAwsome_chess-knight_" data-name="FontAwsome (chess-knight)" d="M384.568,304.021l-45.961,20.43a36.2,36.2,0,0,1-28.144.532l-14.457-5.792A36.2,36.2,0,0,1,274.785,296l-10.43-34.671a27.149,27.149,0,0,0-14.2-17.7l-25.022-12.534v56.934a54.3,54.3,0,0,0,30.02,48.579l64.718,32.4a90.5,90.5,0,0,1,49.988,80.949v16.425H8.035V249.192C8.035,129.284,105.228,32,225.136,32H392.487a13.574,13.574,0,0,1,13.574,13.574,19.117,19.117,0,0,1-2.025,8.575L387.962,86.3l10.181,10.181a27.149,27.149,0,0,1,7.918,19.231V270.922A36.2,36.2,0,0,1,384.568,304.021ZM347.238,140.6a22.624,22.624,0,1,0,22.624,22.624A22.624,22.624,0,0,0,347.238,140.6Z" transform="translate(1063.939 613.704)" fill="#2e2e2f"/>
  </g>
</svg>
