<svg xmlns="http://www.w3.org/2000/svg" width="186.889" height="151.961" viewBox="0 0 186.889 151.961">
  <g id="Group_575" data-name="Group 575" transform="translate(-239.003 -807.08)">
    <path id="Path_489" data-name="Path 489" d="M356.13,416.661H507.721v-1.3A151.608,151.608,0,0,0,357.426,265.07h-1.3Z" transform="translate(-117.127 542.01)" fill="#c4c4c4"/>
    <path id="Path_644" data-name="Path 644" d="M291.648,577.183h.419v-1.456a3.371,3.371,0,0,1,3.37-3.37h1.575a18.21,18.21,0,0,0-.14-5.8c-1.815-8.2-3.989-16.333-6.6-24.33-4.188-13.162-6.7-26.3-2.533-39.886,4.647-15.276,13.96-26.105,29.555-30.792a5.624,5.624,0,0,0,2.812-2.333,33.9,33.9,0,0,1,8.735-9.872c.18,1.775.4,2.912.4,3.989a47.417,47.417,0,0,1-.2,5.046c-.2,2.333.519,3.749,3.111,3.989a29.366,29.366,0,0,1,4.208.977c0,5.245,0,5.245,4.746,7.179a36.853,36.853,0,0,1,4.647,1.994,12.506,12.506,0,0,1,3.071,2.732c2.094,2.373,3.829,5.105,6.122,7.239,4.607,4.268,9.413,8.336,14.279,12.285,2.114,1.715,3.709,3.251,2.652,6.262a6.741,6.741,0,0,0,.3,3.031,11.208,11.208,0,0,1-4.926,9.832c-6.781,3.271-12.105,2.373-17.47-3.071a7.977,7.977,0,0,0-8.875-2.333,27.181,27.181,0,0,1-15.835,1.6c1.157,1.216,1.835,1.994,2.553,2.672a118.641,118.641,0,0,1,18.128,22.157c3.989,6.581,7.1,13.5,6.98,21.359a54.331,54.331,0,0,1-.558,6.182h.678a3.37,3.37,0,0,1,3.37,3.37v1.456h.4a3.829,3.829,0,0,1,3.829,3.809v15.117H287.839v-15.1a3.809,3.809,0,0,1,3.809-3.928Z" transform="translate(53.678 362.832)" fill="#2e2e2f"/>
  </g>
</svg>
